<svg width="130" height="36" viewBox="0 0 130 36" fill="none" xmlns="http://www.w3.org/2000/svg">
<g clip-path="url(#clip0_1_25)">
<rect width="130" height="36" fill="white"/>
<path d="M47.9531 7.95337V25.0159H44.7422V7.95337H47.9531ZM53.25 7.95337V10.4963H39.5039V7.95337H53.25ZM58.6814 12.3362V25.0159H55.5759V12.3362H58.6814ZM55.365 9.01978C55.365 8.55884 55.5212 8.17603 55.8337 7.87134C56.1541 7.56665 56.5837 7.41431 57.1228 7.41431C57.6619 7.41431 58.0877 7.56665 58.4002 7.87134C58.7205 8.17603 58.8806 8.55884 58.8806 9.01978C58.8806 9.4729 58.7205 9.85181 58.4002 10.1565C58.0877 10.4612 57.6619 10.6135 57.1228 10.6135C56.5837 10.6135 56.1541 10.4612 55.8337 10.1565C55.5212 9.85181 55.365 9.4729 55.365 9.01978ZM67.8745 12.3362V14.5627H60.6089V12.3362H67.8745ZM62.5542 9.21899H65.6597V21.3596C65.6597 21.7346 65.7105 22.0237 65.812 22.2268C65.9136 22.4299 66.0659 22.5667 66.2691 22.637C66.4722 22.7073 66.7144 22.7424 66.9956 22.7424C67.1987 22.7424 67.3862 22.7307 67.5581 22.7073C67.73 22.6838 67.8745 22.6604 67.9917 22.637L68.0034 24.9573C67.7456 25.0432 67.4527 25.1135 67.1245 25.1682C66.8042 25.2229 66.4409 25.2502 66.0347 25.2502C65.3394 25.2502 64.73 25.1331 64.2066 24.8987C63.6831 24.6565 63.2769 24.2698 62.9878 23.7385C62.6987 23.1995 62.5542 22.4885 62.5542 21.6057V9.21899ZM73.4583 12.3362V25.0159H70.3528V12.3362H73.4583ZM70.1419 9.01978C70.1419 8.55884 70.2981 8.17603 70.6106 7.87134C70.9309 7.56665 71.3606 7.41431 71.8997 7.41431C72.4387 7.41431 72.8645 7.56665 73.177 7.87134C73.4973 8.17603 73.6575 8.55884 73.6575 9.01978C73.6575 9.4729 73.4973 9.85181 73.177 10.1565C72.8645 10.4612 72.4387 10.6135 71.8997 10.6135C71.3606 10.6135 70.9309 10.4612 70.6106 10.1565C70.2981 9.85181 70.1419 9.4729 70.1419 9.01978ZM79.7452 14.7737V29.8909H76.6397V12.3362H79.5108L79.7452 14.7737ZM87.8897 18.5471V18.7932C87.8897 19.7151 87.7803 20.5706 87.5616 21.3596C87.3506 22.1409 87.0381 22.8245 86.6241 23.4104C86.21 23.9885 85.6944 24.4417 85.0772 24.7698C84.4678 25.0901 83.7647 25.2502 82.9678 25.2502C82.1866 25.2502 81.5069 25.1018 80.9287 24.8049C80.3506 24.5002 79.8623 24.0706 79.4639 23.5159C79.0655 22.9612 78.7452 22.3167 78.503 21.5823C78.2686 20.8401 78.0928 20.0315 77.9756 19.1565V18.3713C78.0928 17.4417 78.2686 16.5979 78.503 15.8401C78.7452 15.0745 79.0655 14.4143 79.4639 13.8596C79.8623 13.2971 80.3467 12.8635 80.917 12.5588C81.4952 12.2542 82.1709 12.1018 82.9444 12.1018C83.7491 12.1018 84.4561 12.2542 85.0655 12.5588C85.6827 12.8635 86.2022 13.301 86.6241 13.8713C87.0459 14.4417 87.3623 15.1213 87.5733 15.9104C87.7842 16.6995 87.8897 17.5784 87.8897 18.5471ZM84.7842 18.7932V18.5471C84.7842 17.9846 84.7334 17.4651 84.6319 16.9885C84.5303 16.5042 84.3741 16.0823 84.1631 15.7229C83.9522 15.3557 83.6787 15.0706 83.3428 14.8674C83.0069 14.6643 82.6006 14.5627 82.1241 14.5627C81.6475 14.5627 81.2373 14.6409 80.8936 14.7971C80.5498 14.9534 80.2686 15.176 80.0498 15.4651C79.8311 15.7542 79.6592 16.0979 79.5342 16.4963C79.417 16.887 79.3389 17.3206 79.2998 17.7971V19.7424C79.3702 20.3206 79.5069 20.8401 79.71 21.301C79.9131 21.762 80.21 22.1292 80.6006 22.4026C80.9991 22.676 81.5147 22.8127 82.1475 22.8127C82.6241 22.8127 83.0303 22.7073 83.3662 22.4963C83.7022 22.2854 83.9756 21.9963 84.1866 21.6292C84.3975 21.2542 84.5498 20.8245 84.6436 20.3401C84.7373 19.8557 84.7842 19.3401 84.7842 18.7932Z" fill="#5830E0"/>
<path d="M92.618 7.95337L96.368 15.9104L100.141 7.95337H103.68L98.0086 18.7698V25.0159H94.7391V18.7698L89.0555 7.95337H92.618ZM112.475 22.0042V12.3362H115.592V25.0159H112.663L112.475 22.0042ZM112.874 19.3792L113.835 19.3557C113.835 20.2073 113.741 20.9924 113.553 21.7112C113.366 22.4299 113.073 23.0549 112.674 23.5862C112.284 24.1096 111.788 24.5198 111.186 24.8167C110.585 25.1057 109.874 25.2502 109.053 25.2502C108.428 25.2502 107.858 25.1643 107.342 24.9924C106.827 24.8127 106.381 24.5354 106.006 24.1604C105.639 23.7776 105.354 23.2893 105.151 22.6956C104.948 22.094 104.846 21.3713 104.846 20.5276V12.3362H107.94V20.551C107.94 20.9729 107.987 21.3245 108.081 21.6057C108.182 21.887 108.319 22.1174 108.491 22.2971C108.67 22.469 108.878 22.594 109.112 22.6721C109.354 22.7424 109.612 22.7776 109.885 22.7776C110.635 22.7776 111.225 22.6292 111.655 22.3323C112.092 22.0276 112.405 21.6213 112.592 21.1135C112.78 20.5979 112.874 20.0198 112.874 19.3792ZM121.668 7.00415V25.0159H118.575V7.00415H121.668ZM129.614 12.3362L124.094 18.5354L121.106 21.5706L120.121 19.1682L122.43 16.262L125.875 12.3362H129.614ZM126.45 25.0159L122.524 19.1096L124.586 17.1057L130.035 25.0159H126.45Z" fill="black"/>
<path fill-rule="evenodd" clip-rule="evenodd" d="M7.85797 9.79266H22.3388L25.1968 6H5L7.85797 9.79266ZM19.3624 20.9819L13.0387 12.4359L17.8011 12.4775L21.059 16.8802L29.0739 6.04869L33.9462 6.09121L34 6.13104L22.9784 21.0258L22.9018 29.8101L19.2857 29.7785L19.3624 20.9819ZM16.3906 22.9252L12.6093 17.9072H12.5979V29.8144H16.3906V22.9252Z" fill="url(#paint0_linear_1_25)"/>
</g>
<defs>
<linearGradient id="paint0_linear_1_25" x1="19.5" y1="6" x2="19.5" y2="29.8144" gradientUnits="userSpaceOnUse">
<stop stop-color="#5830E0"/>
<stop offset="1" stop-color="#081828"/>
</linearGradient>
<clipPath id="clip0_1_25">
<rect width="130" height="36" fill="white"/>
</clipPath>
</defs>
</svg>
